<svg xmlns="http://www.w3.org/2000/svg"><defs><linearGradient x1="50%" y1="3.49%" x2="50%" y2="95.642%" id="a"><stop stop-color="#FFF" stop-opacity=".6" offset="0%"/><stop stop-color="#FFF" stop-opacity=".4" offset="100%"/></linearGradient><linearGradient x1="50%" y1="6.251%" x2="50%" y2="94.899%" id="b"><stop stop-color="#FFF" offset="0%"/><stop stop-color="#FFF" stop-opacity=".8" offset="100%"/></linearGradient><linearGradient x1="50%" y1="3.49%" x2="50%" y2="97.401%" id="a"><stop stop-color="#9351E5" stop-opacity=".2" offset="0%"/><stop stop-color="#9351E5" stop-opacity=".4" offset="100%"/></linearGradient><linearGradient x1="50%" y1="96.106%" x2="50%" y2="6.251%" id="b"><stop stop-color="#9351E5" offset="0%"/><stop stop-color="#9351E5" stop-opacity=".6" offset="100%"/></linearGradient><linearGradient x1="50%" y1="3.49%" x2="50%" y2="95.642%" id="a"><stop stop-color="#FFF" stop-opacity=".6" offset="0%"/><stop stop-color="#FFF" stop-opacity=".4" offset="100%"/></linearGradient><linearGradient x1="50%" y1="6.251%" x2="50%" y2="94.899%" id="b"><stop stop-color="#FFF" offset="0%"/><stop stop-color="#FFF" stop-opacity=".8" offset="100%"/></linearGradient><linearGradient x1="50%" y1="3.49%" x2="50%" y2="97.401%" id="a"><stop stop-color="#9351E5" stop-opacity=".2" offset="0%"/><stop stop-color="#9351E5" stop-opacity=".4" offset="100%"/></linearGradient><linearGradient x1="50%" y1="96.106%" x2="50%" y2="6.251%" id="b"><stop stop-color="#9351E5" offset="0%"/><stop stop-color="#9351E5" stop-opacity=".6" offset="100%"/></linearGradient><linearGradient x1="50%" y1="3.49%" x2="50%" y2="95.642%" id="a"><stop stop-color="#FFF" stop-opacity=".6" offset="0%"/><stop stop-color="#FFF" stop-opacity=".4" offset="100%"/></linearGradient><linearGradient x1="50%" y1="6.251%" x2="50%" y2="94.899%" id="b"><stop stop-color="#FFF" offset="0%"/><stop stop-color="#FFF" stop-opacity=".8" offset="100%"/></linearGradient><linearGradient x1="50%" y1="3.49%" x2="50%" y2="97.401%" id="a"><stop stop-color="#9351E5" stop-opacity=".2" offset="0%"/><stop stop-color="#9351E5" stop-opacity=".4" offset="100%"/></linearGradient><linearGradient x1="50%" y1="96.106%" x2="50%" y2="6.251%" id="b"><stop stop-color="#9351E5" offset="0%"/><stop stop-color="#9351E5" stop-opacity=".6" offset="100%"/></linearGradient><linearGradient x1="50%" y1="3.49%" x2="50%" y2="95.642%" id="a"><stop stop-color="#FFF" stop-opacity=".6" offset="0%"/><stop stop-color="#FFF" stop-opacity=".4" offset="100%"/></linearGradient><linearGradient x1="50%" y1="6.251%" x2="50%" y2="94.899%" id="b"><stop stop-color="#FFF" offset="0%"/><stop stop-color="#FFF" stop-opacity=".8" offset="100%"/></linearGradient><linearGradient x1="50%" y1="3.49%" x2="50%" y2="97.401%" id="a"><stop stop-color="#9351E5" stop-opacity=".2" offset="0%"/><stop stop-color="#9351E5" stop-opacity=".4" offset="100%"/></linearGradient><linearGradient x1="50%" y1="96.106%" x2="50%" y2="6.251%" id="b"><stop stop-color="#9351E5" offset="0%"/><stop stop-color="#9351E5" stop-opacity=".6" offset="100%"/></linearGradient><linearGradient x1="50%" y1="3.49%" x2="50%" y2="95.642%" id="a"><stop stop-color="#FFF" stop-opacity=".6" offset="0%"/><stop stop-color="#FFF" stop-opacity=".4" offset="100%"/></linearGradient><linearGradient x1="50%" y1="6.251%" x2="50%" y2="94.899%" id="b"><stop stop-color="#FFF" offset="0%"/><stop stop-color="#FFF" stop-opacity=".8" offset="100%"/></linearGradient><linearGradient x1="50%" y1="3.49%" x2="50%" y2="97.401%" id="a"><stop stop-color="#9351E5" stop-opacity=".2" offset="0%"/><stop stop-color="#9351E5" stop-opacity=".4" offset="100%"/></linearGradient><linearGradient x1="50%" y1="96.106%" x2="50%" y2="6.251%" id="b"><stop stop-color="#9351E5" offset="0%"/><stop stop-color="#9351E5" stop-opacity=".6" offset="100%"/></linearGradient><linearGradient x1="50%" y1="3.49%" x2="50%" y2="95.642%" id="a"><stop stop-color="#FFF" stop-opacity=".6" offset="0%"/><stop stop-color="#FFF" stop-opacity=".4" offset="100%"/></linearGradient><linearGradient x1="50%" y1="6.251%" x2="50%" y2="94.899%" id="b"><stop stop-color="#FFF" offset="0%"/><stop stop-color="#FFF" stop-opacity=".8" offset="100%"/></linearGradient><linearGradient x1="50%" y1="3.49%" x2="50%" y2="97.401%" id="a"><stop stop-color="#9351E5" stop-opacity=".2" offset="0%"/><stop stop-color="#9351E5" stop-opacity=".4" offset="100%"/></linearGradient><linearGradient x1="50%" y1="96.106%" x2="50%" y2="6.251%" id="b"><stop stop-color="#9351E5" offset="0%"/><stop stop-color="#9351E5" stop-opacity=".6" offset="100%"/></linearGradient><linearGradient x1="50%" y1="3.49%" x2="50%" y2="95.642%" id="a"><stop stop-color="#FFF" stop-opacity=".6" offset="0%"/><stop stop-color="#FFF" stop-opacity=".4" offset="100%"/></linearGradient><linearGradient x1="50%" y1="6.251%" x2="50%" y2="94.899%" id="b"><stop stop-color="#FFF" offset="0%"/><stop stop-color="#FFF" stop-opacity=".8" offset="100%"/></linearGradient><linearGradient x1="50%" y1="3.49%" x2="50%" y2="97.401%" id="a"><stop stop-color="#9351E5" stop-opacity=".2" offset="0%"/><stop stop-color="#9351E5" stop-opacity=".4" offset="100%"/></linearGradient><linearGradient x1="50%" y1="96.106%" x2="50%" y2="6.251%" id="b"><stop stop-color="#9351E5" offset="0%"/><stop stop-color="#9351E5" stop-opacity=".6" offset="100%"/></linearGradient><linearGradient x1="50%" y1="3.49%" x2="50%" y2="95.642%" id="a"><stop stop-color="#FFF" stop-opacity=".6" offset="0%"/><stop stop-color="#FFF" stop-opacity=".4" offset="100%"/></linearGradient><linearGradient x1="50%" y1="6.251%" x2="50%" y2="94.899%" id="b"><stop stop-color="#FFF" offset="0%"/><stop stop-color="#FFF" stop-opacity=".8" offset="100%"/></linearGradient><linearGradient x1="50%" y1="3.49%" x2="50%" y2="97.401%" id="a"><stop stop-color="#9351E5" stop-opacity=".2" offset="0%"/><stop stop-color="#9351E5" stop-opacity=".4" offset="100%"/></linearGradient><linearGradient x1="50%" y1="96.106%" x2="50%" y2="6.251%" id="b"><stop stop-color="#9351E5" offset="0%"/><stop stop-color="#9351E5" stop-opacity=".6" offset="100%"/></linearGradient><linearGradient x1="50%" y1="3.49%" x2="50%" y2="95.642%" id="a"><stop stop-color="#FFF" stop-opacity=".6" offset="0%"/><stop stop-color="#FFF" stop-opacity=".4" offset="100%"/></linearGradient><linearGradient x1="50%" y1="6.251%" x2="50%" y2="94.899%" id="b"><stop stop-color="#FFF" offset="0%"/><stop stop-color="#FFF" stop-opacity=".8" offset="100%"/></linearGradient><linearGradient x1="50%" y1="3.49%" x2="50%" y2="97.401%" id="a"><stop stop-color="#9351E5" stop-opacity=".2" offset="0%"/><stop stop-color="#9351E5" stop-opacity=".4" offset="100%"/></linearGradient><linearGradient x1="50%" y1="96.106%" x2="50%" y2="6.251%" id="b"><stop stop-color="#9351E5" offset="0%"/><stop stop-color="#9351E5" stop-opacity=".6" offset="100%"/></linearGradient><linearGradient x1="50%" y1="3.49%" x2="50%" y2="95.642%" id="a"><stop stop-color="#FFF" stop-opacity=".6" offset="0%"/><stop stop-color="#FFF" stop-opacity=".4" offset="100%"/></linearGradient><linearGradient x1="50%" y1="6.251%" x2="50%" y2="94.899%" id="b"><stop stop-color="#FFF" offset="0%"/><stop stop-color="#FFF" stop-opacity=".8" offset="100%"/></linearGradient><linearGradient x1="50%" y1="3.49%" x2="50%" y2="97.401%" id="a"><stop stop-color="#9351E5" stop-opacity=".2" offset="0%"/><stop stop-color="#9351E5" stop-opacity=".4" offset="100%"/></linearGradient><linearGradient x1="50%" y1="96.106%" x2="50%" y2="6.251%" id="b"><stop stop-color="#9351E5" offset="0%"/><stop stop-color="#9351E5" stop-opacity=".6" offset="100%"/></linearGradient><linearGradient x1="50%" y1="3.49%" x2="50%" y2="95.642%" id="a"><stop stop-color="#FFF" stop-opacity=".6" offset="0%"/><stop stop-color="#FFF" stop-opacity=".4" offset="100%"/></linearGradient><linearGradient x1="50%" y1="6.251%" x2="50%" y2="94.899%" id="b"><stop stop-color="#FFF" offset="0%"/><stop stop-color="#FFF" stop-opacity=".8" offset="100%"/></linearGradient><linearGradient x1="50%" y1="3.49%" x2="50%" y2="97.401%" id="a"><stop stop-color="#9351E5" stop-opacity=".2" offset="0%"/><stop stop-color="#9351E5" stop-opacity=".4" offset="100%"/></linearGradient><linearGradient x1="50%" y1="96.106%" x2="50%" y2="6.251%" id="b"><stop stop-color="#9351E5" offset="0%"/><stop stop-color="#9351E5" stop-opacity=".6" offset="100%"/></linearGradient></defs><symbol id="cluster-inverse" viewBox="0 0 24 24"><g fill="none" fill-rule="evenodd"><path d="M11 8.874v3.627l-4.026 3.02a4.02 4.02 0 0 1 1.45 1.41L12 14.252l3.575 2.68a4.02 4.02 0 0 1 1.45-1.41L13 12.5V8.874a4.007 4.007 0 0 1-2 0z" fill="url(#a)"/><path d="M5 23a4 4 0 1 0 0-8 4 4 0 0 0 0 8zm14 0a4 4 0 1 0 0-8 4 4 0 0 0 0 8zM12 9a4 4 0 1 0 0-8 4 4 0 0 0 0 8z" fill="url(#b)"/></g></symbol><symbol id="cluster" viewBox="0 0 24 24"><g fill="none" fill-rule="evenodd"><path d="M11 8.874v3.627l-4.026 3.02a4.02 4.02 0 0 1 1.45 1.41L12 14.252l3.575 2.68a4.02 4.02 0 0 1 1.45-1.41L13 12.5V8.874a4.007 4.007 0 0 1-2 0z" fill="url(#a)"/><path d="M5 23a4 4 0 1 0 0-8 4 4 0 0 0 0 8zm14 0a4 4 0 1 0 0-8 4 4 0 0 0 0 8zM12 9a4 4 0 1 0 0-8 4 4 0 0 0 0 8z" fill="url(#b)"/></g></symbol><symbol id="components-inverse" viewBox="0 0 24 24"><g fill="none" fill-rule="evenodd"><rect fill="url(#a)" x="13" y="13" width="9" height="9" rx="1"/><path d="M11 12v8.993c0 .556-.446 1.007-.998 1.007H2.998C2.447 22 2 21.55 2 20.993V3.007C2 2.45 2.446 2 2.998 2h7.004c.551 0 .998.45.998 1.007V12zm2-9.002c0-.551.446-.998.998-.998h7.004c.551 0 .998.446.998.998v7.004a.998.998 0 0 1-.998.998h-7.004a.997.997 0 0 1-.998-.998V2.998z" fill="url(#b)"/></g></symbol><symbol id="components" viewBox="0 0 24 24"><g fill="none" fill-rule="evenodd"><rect fill="url(#a)" x="13" y="13" width="9" height="9" rx="1"/><path d="M2 2.992C2 2.444 2.446 2 2.998 2h7.004c.551 0 .998.455.998.992v18.016a.994.994 0 0 1-.998.992H2.998C2.447 22 2 21.545 2 21.008V2.992zm11 .006c0-.551.446-.998.998-.998h7.004c.551 0 .998.446.998.998v7.004a.998.998 0 0 1-.998.998h-7.004a.997.997 0 0 1-.998-.998V2.998z" fill="url(#b)"/></g></symbol><symbol id="gear-inverse" viewBox="0 0 24 24"><g fill="none" fill-rule="evenodd"><path d="M12 18a6 6 0 1 0 0-12 6 6 0 0 0 0 12zm0-2a4 4 0 1 0 0-8 4 4 0 0 0 0 8z" fill="url(#a)"/><path d="M19.035 8.189l1.389-1.914c.327-.451.277-1.13-.111-1.518l-1.07-1.07c-.379-.38-1.068-.438-1.518-.11L15.81 4.964a7.95 7.95 0 0 0-1.531-.635l-.372-2.334c-.086-.55-.602-.995-1.151-.995h-1.512c-.536 0-1.065.446-1.152.996L9.72 4.33a7.95 7.95 0 0 0-1.531.635L6.275 3.576c-.451-.327-1.13-.277-1.518.111l-1.07 1.07c-.38.379-.438 1.068-.11 1.518L4.964 8.19a7.95 7.95 0 0 0-.634 1.53l-2.334.372c-.551.087-.996.603-.996 1.152v1.512c0 .536.446 1.065.996 1.152l2.334.372a7.95 7.95 0 0 0 .635 1.531l-1.389 1.914c-.327.451-.277 1.13.111 1.518l1.07 1.07c.379.38 1.068.438 1.518.11l1.914-1.388a7.95 7.95 0 0 0 1.531.635l.372 2.334c.087.551.603.996 1.152.996h1.512c.536 0 1.065-.446 1.152-.996l.372-2.334a7.95 7.95 0 0 0 1.531-.635l1.914 1.389c.451.327 1.13.277 1.518-.111l1.07-1.07c.38-.379.438-1.068.11-1.518l-1.388-1.914a7.95 7.95 0 0 0 .635-1.531l2.334-.372c.551-.087.996-.603.996-1.152v-1.512c0-.536-.446-1.065-.996-1.152L19.67 9.72a7.95 7.95 0 0 0-.635-1.531zM12 18a6 6 0 1 0 0-12 6 6 0 0 0 0 12zm0-2a4 4 0 1 0 0-8 4 4 0 0 0 0 8zm0-2a2 2 0 1 0 0-4 2 2 0 0 0 0 4z" fill="url(#b)"/></g></symbol><symbol id="gear" viewBox="0 0 24 24"><g fill="none" fill-rule="evenodd"><path d="M12 18a6 6 0 1 0 0-12 6 6 0 0 0 0 12zm0-2a4 4 0 1 0 0-8 4 4 0 0 0 0 8z" fill="url(#a)"/><path d="M19.035 8.189l1.389-1.914c.327-.451.277-1.13-.111-1.518l-1.07-1.07c-.379-.38-1.068-.438-1.518-.11L15.81 4.964a7.95 7.95 0 0 0-1.531-.635l-.372-2.334c-.086-.55-.602-.995-1.151-.995h-1.512c-.536 0-1.065.446-1.152.996L9.72 4.33a7.95 7.95 0 0 0-1.531.635L6.275 3.576c-.451-.327-1.13-.277-1.518.111l-1.07 1.07c-.38.379-.438 1.068-.11 1.518L4.964 8.19a7.95 7.95 0 0 0-.634 1.53l-2.334.372c-.551.087-.996.603-.996 1.152v1.512c0 .536.446 1.065.996 1.152l2.334.372a7.95 7.95 0 0 0 .635 1.531l-1.389 1.914c-.327.451-.277 1.13.111 1.518l1.07 1.07c.379.38 1.068.438 1.518.11l1.914-1.388a7.95 7.95 0 0 0 1.531.635l.372 2.334c.087.551.603.996 1.152.996h1.512c.536 0 1.065-.446 1.152-.996l.372-2.334a7.95 7.95 0 0 0 1.531-.635l1.914 1.389c.451.327 1.13.277 1.518-.111l1.07-1.07c.38-.379.438-1.068.11-1.518l-1.388-1.914a7.95 7.95 0 0 0 .635-1.531l2.334-.372c.551-.087.996-.603.996-1.152v-1.512c0-.536-.446-1.065-.996-1.152L19.67 9.72a7.95 7.95 0 0 0-.635-1.531zM12 18a6 6 0 1 0 0-12 6 6 0 0 0 0 12zm0-2a4 4 0 1 0 0-8 4 4 0 0 0 0 8zm0-2a2 2 0 1 0 0-4 2 2 0 0 0 0 4z" fill="url(#b)"/></g></symbol><symbol id="graph-inverse" viewBox="0 0 24 24"><g fill="none" fill-rule="evenodd"><path d="M22 5.057v14.952c0 1.1-.898 1.991-1.99 1.991H3.99A1.995 1.995 0 0 1 2 20.01V9.7c3.454 1.222 2.523 6.808 6.554 6.808C13.081 16.508 14.38 5 21.063 5c.326 0 .638.02.937.057z" fill="url(#a)"/><path d="M22 5.057V3.99C22 2.898 21.109 2 20.01 2H3.99C2.899 2 2 2.891 2 3.99V9.7c3.454 1.222 2.523 6.808 6.554 6.808C13.081 16.508 14.38 5 21.063 5c.326 0 .638.02.937.057z" fill="url(#b)"/></g></symbol><symbol id="graph" viewBox="0 0 24 24"><g fill="none" fill-rule="evenodd"><path d="M22 5.057v14.952c0 1.1-.898 1.991-1.99 1.991H3.99A1.995 1.995 0 0 1 2 20.01V9.7c3.454 1.222 2.523 6.808 6.554 6.808C13.081 16.508 14.38 5 21.063 5c.326 0 .638.02.937.057z" fill="url(#a)"/><path d="M22 5.057V3.99C22 2.898 21.109 2 20.01 2H3.99C2.899 2 2 2.891 2 3.99V9.7c3.454 1.222 2.523 6.808 6.554 6.808C13.081 16.508 14.38 5 21.063 5c.326 0 .638.02.937.057z" fill="url(#b)"/></g></symbol><symbol id="jobs-inverse" viewBox="0 0 24 24"><g fill="none" fill-rule="evenodd"><path d="M17 17h3.008A1.993 1.993 0 0 0 22 15.008V3.992A1.993 1.993 0 0 0 20.008 2H8.992A1.993 1.993 0 0 0 7 3.992V7h8.008C16.108 7 17 7.893 17 8.992V17zm-4.797-3.098c.44.33.44.866 0 1.196l-4.406 3.304c-.44.33-.797.152-.797-.4v-7.004c0-.551.357-.73.797-.4l4.406 3.304z" fill="url(#a)"/><path d="M2 8.992C2 7.892 2.893 7 3.992 7h11.016C16.108 7 17 7.893 17 8.992v11.016c0 1.1-.893 1.992-1.992 1.992H3.992C2.892 22 2 21.107 2 20.008V8.992zm10.203 4.91c.44.33.44.866 0 1.196l-4.406 3.304c-.44.33-.797.152-.797-.4v-7.004c0-.551.357-.73.797-.4l4.406 3.304z" fill="url(#b)"/></g></symbol><symbol id="jobs" viewBox="0 0 24 24"><g fill="none" fill-rule="evenodd"><path d="M17 17h3.008A1.993 1.993 0 0 0 22 15.008V3.992A1.993 1.993 0 0 0 20.008 2H8.992A1.993 1.993 0 0 0 7 3.992V7h8.008C16.108 7 17 7.893 17 8.992V17zm-4.797-3.098c.44.33.44.866 0 1.196l-4.406 3.304c-.44.33-.797.152-.797-.4v-7.004c0-.551.357-.73.797-.4l4.406 3.304z" fill="url(#a)"/><path d="M2 8.992C2 7.892 2.893 7 3.992 7h11.016C16.108 7 17 7.893 17 8.992v11.016c0 1.1-.893 1.992-1.992 1.992H3.992C2.892 22 2 21.107 2 20.008V8.992zm10.203 4.91c.44.33.44.866 0 1.196l-4.406 3.304c-.44.33-.797.152-.797-.4v-7.004c0-.551.357-.73.797-.4l4.406 3.304z" fill="url(#b)"/></g></symbol><symbol id="lock-inverse" viewBox="0 0 24 24"><g fill="none" fill-rule="evenodd"><path d="M18 7A6 6 0 1 0 6 7v2h2V7a4 4 0 1 1 8 0v2h2V7zM2 18h20v3c0 .552-.455 1-.992 1H2.992A.993.993 0 0 1 2 21v-3z" fill="url(#a)"/><rect fill="url(#b)" x="2" y="9" width="20" height="9" rx="1"/></g></symbol><symbol id="lock" viewBox="0 0 24 24"><g fill="none" fill-rule="evenodd"><path d="M18 7A6 6 0 1 0 6 7v2h2V7a4 4 0 1 1 8 0v2h2V7zM2 18h20v3c0 .552-.455 1-.992 1H2.992A.993.993 0 0 1 2 21v-3z" fill="url(#a)"/><rect fill="url(#b)" x="2" y="9" width="20" height="9" rx="1"/></g></symbol><symbol id="network-inverse" viewBox="0 0 24 24"><g fill="none" fill-rule="evenodd"><path d="M3 17.17v-3.16C3 12.899 3.893 12 4.995 12H11V8.874a4.007 4.007 0 0 0 2 0V12h6.005c1.102 0 1.995.902 1.995 2.009v3.162a2.995 2.995 0 0 0-2 0v-3.162c0-.007-.002-.009.005-.009H13v3h-2v-3H4.995c.006 0 .005 0 .005.009v3.162a2.995 2.995 0 0 0-2 0z" fill="url(#a)"/><path d="M12 9a4 4 0 1 0 0-8 4 4 0 0 0 0 8zm8 14a3 3 0 1 0 0-6 3 3 0 0 0 0 6zm-8 0a3 3 0 1 0 0-6 3 3 0 0 0 0 6zm-8 0a3 3 0 1 0 0-6 3 3 0 0 0 0 6z" fill="url(#b)"/></g></symbol><symbol id="network" viewBox="0 0 24 24"><g fill="none" fill-rule="evenodd"><path d="M3 17.17v-3.16C3 12.899 3.893 12 4.995 12H11V8.874a4.007 4.007 0 0 0 2 0V12h6.005c1.102 0 1.995.902 1.995 2.009v3.162a2.995 2.995 0 0 0-2 0v-3.162c0-.007-.002-.009.005-.009H13v3h-2v-3H4.995c.006 0 .005 0 .005.009v3.162a2.995 2.995 0 0 0-2 0z" fill="url(#a)"/><path d="M12 9a4 4 0 1 0 0-8 4 4 0 0 0 0 8zm8 14a3 3 0 1 0 0-6 3 3 0 0 0 0 6zm-8 0a3 3 0 1 0 0-6 3 3 0 0 0 0 6zm-8 0a3 3 0 1 0 0-6 3 3 0 0 0 0 6z" fill="url(#b)"/></g></symbol><symbol id="packages-inverse" viewBox="0 0 24 24"><g fill="none" fill-rule="evenodd"><path d="M19 17v-3h-2v3h-3v2h3v3h2v-3h3v-2h-3z" fill="url(#a)"/><path d="M2 13.998c0-.551.446-.998.998-.998h7.004c.551 0 .998.446.998.998v7.004a.998.998 0 0 1-.998.998H2.998A.997.997 0 0 1 2 21.002v-7.004zm11-11c0-.551.446-.998.998-.998h7.004c.551 0 .998.446.998.998v7.004a.998.998 0 0 1-.998.998h-7.004a.997.997 0 0 1-.998-.998V2.998zm-11 0C2 2.447 2.446 2 2.998 2h7.004c.551 0 .998.446.998.998v7.004a.998.998 0 0 1-.998.998H2.998A.997.997 0 0 1 2 10.002V2.998z" fill="url(#b)"/></g></symbol><symbol id="packages" viewBox="0 0 24 24"><g fill="none" fill-rule="evenodd"><path d="M19 17v-3h-2v3h-3v2h3v3h2v-3h3v-2h-3z" fill="url(#a)"/><path d="M2 13.998c0-.551.446-.998.998-.998h7.004c.551 0 .998.446.998.998v7.004a.998.998 0 0 1-.998.998H2.998A.997.997 0 0 1 2 21.002v-7.004zm11-11c0-.551.446-.998.998-.998h7.004c.551 0 .998.446.998.998v7.004a.998.998 0 0 1-.998.998h-7.004a.997.997 0 0 1-.998-.998V2.998zm-11 0C2 2.447 2.446 2 2.998 2h7.004c.551 0 .998.446.998.998v7.004a.998.998 0 0 1-.998.998H2.998A.997.997 0 0 1 2 10.002V2.998z" fill="url(#b)"/></g></symbol><symbol id="servers-inverse" viewBox="0 0 24 24"><g fill="none" fill-rule="evenodd"><path d="M13 11v2h-2v-2h2zm0-8V1h-2v2h2zm0 18v2h-2v-2h2zM6 5h2v2H6V5zm0 10h2v2H6v-2zM3 5h2v2H3V5zm0 10h2v2H3v-2z" fill="url(#a)"/><path d="M1 13.997c0-.55.44-.997 1.002-.997h19.996c.553 0 1.002.453 1.002.997v6.006c0 .55-.44.997-1.002.997H2.002A1.004 1.004 0 0 1 1 20.003v-6.006zm0-10C1 3.447 1.44 3 2.002 3h19.996C22.55 3 23 3.453 23 3.997v6.006c0 .55-.44.997-1.002.997H2.002A1.004 1.004 0 0 1 1 10.003V3.997zM6 5h2v2H6V5zm0 10h2v2H6v-2zM3 5h2v2H3V5zm0 10h2v2H3v-2z" fill="url(#b)"/></g></symbol><symbol id="servers" viewBox="0 0 24 24"><g fill="none" fill-rule="evenodd"><path d="M13 11v2h-2v-2h2zm0-8V1h-2v2h2zm0 18v2h-2v-2h2zM6 5h2v2H6V5zm0 10h2v2H6v-2zM3 5h2v2H3V5zm0 10h2v2H3v-2z" fill="url(#a)"/><path d="M1 13.997c0-.55.44-.997 1.002-.997h19.996c.553 0 1.002.453 1.002.997v6.006c0 .55-.44.997-1.002.997H2.002A1.004 1.004 0 0 1 1 20.003v-6.006zm0-10C1 3.447 1.44 3 2.002 3h19.996C22.55 3 23 3.453 23 3.997v6.006c0 .55-.44.997-1.002.997H2.002A1.004 1.004 0 0 1 1 10.003V3.997zM6 5h2v2H6V5zm0 10h2v2H6v-2zM3 5h2v2H3V5zm0 10h2v2H3v-2z" fill="url(#b)"/></g></symbol><symbol id="services-inverse" viewBox="0 0 24 24"><g fill="none" fill-rule="evenodd"><path d="M17 17h3.008A1.993 1.993 0 0 0 22 15.008V3.992A1.993 1.993 0 0 0 20.008 2H8.992A1.993 1.993 0 0 0 7 3.992V7h8.008C16.108 7 17 7.893 17 8.992V17z" fill="url(#a)"/><rect fill="url(#b)" x="2" y="7" width="15" height="15" rx="2"/></g></symbol><symbol id="services" viewBox="0 0 24 24"><g fill="none" fill-rule="evenodd"><path d="M17 17h3.008A1.993 1.993 0 0 0 22 15.008V3.992A1.993 1.993 0 0 0 20.008 2H8.992A1.993 1.993 0 0 0 7 3.992V7h8.008C16.108 7 17 7.893 17 8.992V17z" fill="url(#a)"/><rect fill="url(#b)" x="2" y="7" width="15" height="15" rx="2"/></g></symbol><symbol id="users-inverse" viewBox="0 0 24 24"><g fill="none" fill-rule="evenodd"><path d="M17 17.703V18h5v-4.297C20.262 12.058 17.549 11 14.5 11c-.177 0-.354.004-.529.01A4.5 4.5 0 0 1 9.5 15c3.049 0 5.762 1.058 7.5 2.703zM10.024 6.03a4.5 4.5 0 1 1 3.952 4.94 4.5 4.5 0 0 0-3.952-4.94z" fill="url(#a)"/><path d="M17 17.703C15.262 16.058 12.549 15 9.5 15c-3.049 0-5.762 1.058-7.5 2.703V22h15v-4.297zM9.5 15a4.5 4.5 0 1 0 0-9 4.5 4.5 0 0 0 0 9z" fill="url(#b)"/></g></symbol><symbol id="users" viewBox="0 0 24 24"><g fill="none" fill-rule="evenodd"><path d="M17 17.703V18h5v-4.297C20.262 12.058 17.549 11 14.5 11c-.177 0-.354.004-.529.01A4.5 4.5 0 0 1 9.5 15c3.049 0 5.762 1.058 7.5 2.703zM10.024 6.03a4.5 4.5 0 1 1 3.952 4.94 4.5 4.5 0 0 0-3.952-4.94z" fill="url(#a)"/><path d="M17 17.703C15.262 16.058 12.549 15 9.5 15c-3.049 0-5.762 1.058-7.5 2.703V22h15v-4.297zM9.5 15a4.5 4.5 0 1 0 0-9 4.5 4.5 0 0 0 0 9z" fill="url(#b)"/></g></symbol></svg>