<svg xmlns="http://www.w3.org/2000/svg"><symbol id="arrow-down" viewBox="0 0 16 16"><path d="M9 10.763V2H7v8.763L4.119 7.88 2.88 9.12 8 14.237l5.119-5.118L11.88 7.88 9 10.763z" fill-rule="evenodd"/></symbol><symbol id="arrow-left" viewBox="0 0 16 16"><path d="M5.237 7H14v2H5.237l2.882 2.881L6.88 13.12 1.763 8 6.88 2.881 8.12 4.12z" fill-rule="evenodd"/></symbol><symbol id="arrow-right" viewBox="0 0 16 16"><path d="M10.763 7H2v2h8.763L7.88 11.881l1.24 1.239L14.237 8 9.12 2.881 7.88 4.12 10.763 7z" fill-rule="evenodd"/></symbol><symbol id="arrow-up" viewBox="0 0 16 16"><path d="M9 5.237V14H7V5.237L4.119 8.12 2.88 6.88 8 1.763l5.119 5.118L11.88 8.12z" fill-rule="evenodd"/></symbol><symbol id="caret-down" viewBox="0 0 16 16"><path d="M4.119 4.881L2.88 6.12 8 11.238l5.119-5.12-1.238-1.237L8 8.763z" fill-rule="evenodd"/></symbol><symbol id="caret-left" viewBox="0 0 16 16"><path d="M11.119 4.119L9.88 2.88 4.763 8l5.118 5.119 1.238-1.238L7.237 8z" fill-rule="evenodd"/></symbol><symbol id="caret-right" viewBox="0 0 16 16"><path d="M8.763 8L4.88 11.881l1.24 1.239L11.238 8l-5.12-5.119L4.882 4.12z" fill-rule="evenodd"/></symbol><symbol id="caret-up" viewBox="0 0 16 16"><path d="M11.881 11.119L13.12 9.88 8 4.763 2.881 9.88l1.239 1.24L8 7.237z" fill-rule="evenodd"/></symbol><symbol id="check" viewBox="0 0 16 16"><path d="M3.119 7.881L1.88 9.12l3.62 3.618 8.619-8.62-1.238-1.237L5.5 10.263z" fill-rule="evenodd"/></symbol><symbol id="circle-check" viewBox="0 0 16 16"><path d="M8 15A7 7 0 1 0 8 1a7 7 0 0 0 0 14zM5.5 7.5l-1 1.086L7 11l4.5-4.5-1-1L7 9 5.5 7.5z" fill-rule="evenodd"/></symbol><symbol id="circle-close" viewBox="0 0 16 16"><path d="M8 15A7 7 0 1 0 8 1a7 7 0 0 0 0 14zm-2.5-3.5l-1-1L7 8 4.5 5.5l1-1L8 7l2.5-2.5 1 1L9 8l2.5 2.5-1 1L8 9l-2.5 2.5z" fill-rule="evenodd"/></symbol><symbol id="circle-information" viewBox="0 0 16 16"><path d="M8 1a7 7 0 1 0 0 14A7 7 0 0 0 8 1zm.485 10.503c-.51.465-.971.698-1.384.698-.283 0-.49-.085-.618-.254a.925.925 0 0 1-.192-.574c0-.133.016-.258.05-.372.034-.114.071-.23.112-.349l.963-2.329c.054-.134.092-.242.116-.325a.81.81 0 0 0 .036-.218c0-.063-.01-.109-.03-.136a.096.096 0 0 0-.082-.042c-.088 0-.258.156-.512.467-.253.311-.404.467-.45.467-.055 0-.109-.043-.163-.13a.488.488 0 0 1-.081-.165c0-.08.064-.207.193-.385.128-.177.29-.364.486-.561.176-.181.387-.35.633-.509.247-.157.465-.236.654-.236.304 0 .532.1.684.301.152.201.228.444.228.728 0 .118-.01.244-.03.378a1.46 1.46 0 0 1-.132.414l-.77 1.974c-.06.166-.105.3-.132.402a.997.997 0 0 0-.04.213c0 .047.01.077.03.088a.12.12 0 0 0 .06.018c.15 0 .323-.124.523-.372s.326-.373.38-.373c.047 0 .098.042.152.125.054.082.081.14.081.171 0 .126-.255.422-.765.886zM9.83 5.274c-.21.213-.464.32-.763.32-.292 0-.544-.107-.757-.32a1.034 1.034 0 0 1-.319-.757c0-.291.107-.543.32-.756a1.03 1.03 0 0 1 .756-.32c.3 0 .554.107.763.32.208.213.313.465.313.756 0 .292-.105.544-.313.757z" fill-rule="evenodd"/></symbol><symbol id="circle-question" viewBox="0 0 16 16"><path d="M8 1a7 7 0 1 0 0 14A7 7 0 0 0 8 1zM5.5 6.175h1.41c.031-.588.427-.968 1.025-.968.593 0 .989.36.989.853 0 .495-.203.75-.875 1.15-.718.422-1.004.89-.936 1.707l.01.083h1.38v-.057c0-.51.192-.765.884-1.166.733-.432 1.113-.978 1.113-1.763C10.5 4.827 9.517 4 8.029 4 6.43 4 5.526 4.895 5.5 6.175zM8 12a1 1 0 1 0 0-2 1 1 0 0 0 0 2z" fill-rule="evenodd"/></symbol><symbol id="clipboard" viewBox="0 0 16 16"><g fill-rule="evenodd"><path d="M6 1h4v3H6V1zM4 4h8v2H4V4z" fill-opacity=".3"/><path d="M6 2H2v13h12V2h-4v2H6V2zM4 4h8v2H4V4z"/></g></symbol><symbol id="close" viewBox="0 0 16 16"><path d="M8 9.237L4.119 13.12 2.88 11.88 6.763 8 2.88 4.119 4.12 2.88 8 6.763l3.881-3.882L13.12 4.12 9.237 8l3.882 3.881-1.238 1.238L8 9.237z" fill-rule="evenodd"/></symbol><symbol id="commit" viewBox="0 0 16 16"><path d="M9 3.1V1H7v2.1a5.002 5.002 0 0 0 0 9.8V15h2v-2.1a5.002 5.002 0 0 0 0-9.8zM8 11a3 3 0 1 0 0-6 3 3 0 0 0 0 6z" fill-rule="evenodd"/></symbol><symbol id="container" viewBox="0 0 16 16"><g fill-rule="evenodd"><path fill-opacity=".3" d="M8 .5l7 3.75L8 8 1 4.25z"/><path d="M8 .5l7 3.75v7.5L8 15.5l-7-3.75v-7.5L8 .5zm0 0l7 3.75L8 8 1 4.25 8 .5z"/></g></symbol><symbol id="containers" viewBox="0 0 16 16"><g fill-rule="evenodd"><path d="M7 6.625L5 5.5 1 7.75v4.5l4 2.25 4-2.25V9.875L11 11l4-2.25v-4.5L11 2 7 4.25v2.375zm8-2.375L11 2 7 4.25l4 2.25 4-2.25zm-6 3.5L5 5.5 1 7.75 5 10l4-2.25z"/><path d="M9 7.75L5 5.5 1 7.75 5 10l4-2.25zm6-3.5L11 2 7 4.25l4 2.25 4-2.25z" fill-opacity=".3"/></g></symbol><symbol id="database" viewBox="0 0 16 16"><g fill-rule="evenodd"><path d="M2 7.5v1c0 1.657 2.686 3 6 3s6-1.343 6-3v-1c0 1.657-2.686 3-6 3s-6-1.343-6-3zM8 7c3.314 0 6-1.343 6-3s-2.686-3-6-3-6 1.343-6 3 2.686 3 6 3z" fill-opacity=".3"/><path d="M2 4v8c0 1.657 2.686 3 6 3s6-1.343 6-3V4c0 1.657-2.686 3-6 3S2 5.657 2 4zm0 3.5v1c0 1.657 2.686 3 6 3s6-1.343 6-3v-1c0 1.657-2.686 3-6 3s-6-1.343-6-3z"/></g></symbol><symbol id="door-key" viewBox="0 0 16 16"><g fill-rule="evenodd"><path d="M11 9h1V7H6.83a3.001 3.001 0 1 0 0 2H8v1h1V9h1v1h1V9z" fill-opacity=".3"/><path d="M4 11v4h10V1H4v4c1.306 0 2.417.835 2.83 2H12v2h-1v1h-1V9H9v1H8V9H6.83A3.001 3.001 0 0 1 4 11z"/></g></symbol><symbol id="download" viewBox="0 0 16 16"><path d="M9 1H7v7.763L4.119 5.88 2.88 7.12 8 12.237l5.119-5.118L11.88 5.88 9 8.763V1zM1 13h14v2H1v-2z" fill-rule="evenodd"/></symbol><symbol id="ellipsis-horizontal" viewBox="0 0 16 16"><path d="M1.5 8a1.5 1.5 0 1 0 3 0 1.5 1.5 0 0 0-3 0zm5 0a1.5 1.5 0 1 0 3 0 1.5 1.5 0 0 0-3 0zm5 0a1.5 1.5 0 1 0 3 0 1.5 1.5 0 0 0-3 0z" fill-rule="evenodd"/></symbol><symbol id="ellipsis-vertical" viewBox="0 0 16 16"><path d="M8 14.5a1.5 1.5 0 1 0 0-3 1.5 1.5 0 0 0 0 3zm0-5a1.5 1.5 0 1 0 0-3 1.5 1.5 0 0 0 0 3zm0-5a1.5 1.5 0 1 0 0-3 1.5 1.5 0 0 0 0 3z" fill-rule="evenodd"/></symbol><symbol id="export" viewBox="0 0 16 16"><path d="M3 13h10v-2h2v4H1v-4h2v2zm6-7.763V12H7V5.237L4.119 8.12 2.88 6.88 8 1.763l5.119 5.118L11.88 8.12 9 5.237z" fill-rule="evenodd"/></symbol><symbol id="eye-slash" viewBox="0 0 16 16"><path d="M2.65 12.267C1.247 11.19.277 9.693 0 8c.555-3.392 3.889-6 7.919-6 .217 0 .432.008.645.022L7.06 4.628a3.502 3.502 0 0 0-2.45 4.244l-1.96 3.395zm4.78 1.72c.162.009.325.013.489.013 4.03 0 7.364-2.608 7.919-6-.27-1.648-1.195-3.111-2.538-4.18l-1.91 3.308a3.506 3.506 0 0 1-2.45 4.244l-1.51 2.615zM11.134.572l1.732 1-8 13.856-1.732-1 8-13.856z" fill-rule="evenodd"/></symbol><symbol id="eye" viewBox="0 0 16 16"><path d="M7.919 2C3.889 2 .555 4.608 0 8c.555 3.392 3.889 6 7.919 6 4.03 0 7.364-2.608 7.919-6-.555-3.392-3.889-6-7.919-6zM8 11.5a3.5 3.5 0 1 0 0-7 3.5 3.5 0 0 0 0 7zm0-2a1.5 1.5 0 1 0 0-3 1.5 1.5 0 0 0 0 3z" fill-rule="evenodd"/></symbol><symbol id="folder-minus" viewBox="0 0 16 16"><g fill-rule="evenodd"><path d="M15 3.996A.996.996 0 0 0 14.003 3H7l-.778-1.556A.88.88 0 0 0 5.502 1H2c-.556 0-1 .447-1 .998v3.999C1 5.447 1.45 5 2.007 5h11.986C14.55 5 15 5.453 15 5.997V3.996zM11.5 16a4.5 4.5 0 1 0 0-9 4.5 4.5 0 0 0 0 9zm2.5-5v1H9v-1h5z" fill-opacity=".3"/><path d="M15 8.671V5.998C15 5.446 14.55 5 13.993 5H2.007C1.45 5 1 5.447 1 5.998v7.004c0 .552.45.998 1.007.998h5.75A4.5 4.5 0 0 1 15 8.671z"/></g></symbol><symbol id="folder-open" viewBox="0 0 16 16"><g fill-rule="evenodd"><path d="M15 3.996A.996.996 0 0 0 14.003 3H7l-.778-1.556A.88.88 0 0 0 5.502 1H2c-.556 0-1 .447-1 .998v6.999C1 8.447 1.45 8 2.007 8h11.986C14.55 8 15 8.453 15 8.997V3.996z" fill-opacity=".3"/><rect x="1" y="8" width="14" height="6" rx="1"/></g></symbol><symbol id="folder-plus" viewBox="0 0 16 16"><g fill-rule="evenodd"><path d="M12 12h2v-1h-2V9h-1v2H9v1h2v2h1v-2zm3-8.004A.996.996 0 0 0 14.003 3H7l-.778-1.556A.88.88 0 0 0 5.502 1H2c-.556 0-1 .447-1 .998v3.999C1 5.447 1.45 5 2.007 5h11.986C14.55 5 15 5.453 15 5.997V3.996zM11.5 16a4.5 4.5 0 1 0 0-9 4.5 4.5 0 0 0 0 9z" fill-opacity=".3"/><path d="M15 8.671V5.998C15 5.446 14.55 5 13.993 5H2.007C1.45 5 1 5.447 1 5.998v7.004c0 .552.45.998 1.007.998h5.75A4.5 4.5 0 0 1 15 8.671z"/></g></symbol><symbol id="folder" viewBox="0 0 16 16"><g fill-rule="evenodd"><path d="M15 3.996A.996.996 0 0 0 14.003 3H7l-.778-1.556A.88.88 0 0 0 5.502 1H2c-.556 0-1 .447-1 .998v3.999C1 5.447 1.45 5 2.007 5h11.986C14.55 5 15 5.453 15 5.997V3.996z" fill-opacity=".3"/><rect x="1" y="5" width="14" height="9" rx="1"/></g></symbol><symbol id="funnel" viewBox="0 0 16 16"><path d="M5 12a1 1 0 0 1 .99-1h4.02c.546 0 .99.444.99 1a1 1 0 0 1-.99 1H5.99A.993.993 0 0 1 5 12zM3 8c0-.552.456-1 .995-1h8.01c.55 0 .995.444.995 1 0 .552-.456 1-.995 1h-8.01A.995.995 0 0 1 3 8zM1 4c0-.552.45-1 1.007-1h11.986a1 1 0 1 1 0 2H2.007A1.001 1.001 0 0 1 1 4z" fill-rule="evenodd"/></symbol><symbol id="gear" viewBox="0 0 16 16"><path d="M14 9c.552 0 1-.444 1-1 0-.552-.445-1-1-1h-1.1a4.984 4.984 0 0 0-.728-1.757l.777-.778a1 1 0 1 0-1.414-1.414l-.778.777A4.984 4.984 0 0 0 9 3.1V2c0-.552-.444-1-1-1-.552 0-1 .445-1 1v1.1a4.984 4.984 0 0 0-1.757.728l-.778-.777a1 1 0 1 0-1.414 1.414l.777.778A4.984 4.984 0 0 0 3.1 7H2c-.552 0-1 .444-1 1 0 .552.445 1 1 1h1.1c.13.638.381 1.233.728 1.757l-.777.778a1 1 0 1 0 1.414 1.414l.778-.777A4.984 4.984 0 0 0 7 12.9V14c0 .552.444 1 1 1 .552 0 1-.445 1-1v-1.1a4.984 4.984 0 0 0 1.757-.728l.778.777a1 1 0 1 0 1.414-1.414l-.777-.778A4.984 4.984 0 0 0 12.9 9H14zM5.25 8a2.75 2.75 0 1 1 5.5 0 2.75 2.75 0 0 1-5.5 0z" fill-rule="evenodd"/></symbol><symbol id="import" viewBox="0 0 16 16"><path d="M3 13h10v-2h2v4H1v-4h2v2zM9 1H7v7.763L4.119 5.88 2.88 7.12 8 12.237l5.119-5.118L11.88 5.88 9 8.763V1z" fill-rule="evenodd"/></symbol><symbol id="key" viewBox="0 0 16 16"><path d="M4.292 13.708L4 14H2v-2l4.354-4.354a4 4 0 1 1 2 2l-.646.646c.18.18.292.43.292.708 0 .552-.444 1-1 1a.998.998 0 0 1-.708-.292l-.584.584c.18.18.292.43.292.708 0 .552-.444 1-1 1a.998.998 0 0 1-.708-.292zM10.5 6.5a1 1 0 1 0 0-2 1 1 0 0 0 0 2z" fill-rule="evenodd"/></symbol><symbol id="lock-open" viewBox="0 0 16 16"><g fill-rule="evenodd"><path fill-opacity=".3" d="M2 12h12v3H2z"/><path d="M4 7h-.998C2.456 7 2 7.448 2 8v4h12V8c0-.556-.449-1-1.002-1H6V5H4v2zm8-2a4 4 0 1 0-8 0h2a2 2 0 1 1 4 0h2z"/></g></symbol><symbol id="lock" viewBox="0 0 16 16"><path d="M6 7h4V5h2v2h.998C13.55 7 14 7.453 14 7.997v6.006c0 .55-.456.997-1.002.997H3.002A1.004 1.004 0 0 1 2 14.003V7.997C2 7.447 2.456 7 3.002 7H4V5h2v2zm6-2a4 4 0 1 0-8 0h2a2 2 0 1 1 4 0h2z" fill-rule="evenodd"/></symbol><symbol id="menu" viewBox="0 0 16 16"><path d="M1 13h14v2H1v-2zm0-6h14v2H1V7zm0-6h14v2H1V1z" fill-rule="evenodd"/></symbol><symbol id="minus" viewBox="0 0 16 16"><path d="M2 7h12v2H2z" fill-rule="evenodd"/></symbol><symbol id="open-external" viewBox="0 0 16 16"><path d="M10.586 4H8V2h6v6h-2V5.414L7.707 9.707 6.293 8.293 10.586 4zM2 2v12h12v-4h-2v2H4V4h2V2H2z" fill-rule="evenodd"/></symbol><symbol id="page-document" viewBox="0 0 16 16"><g fill-rule="evenodd"><path d="M2 1h12v14H2V1zm7 0h5v5H9V1zM5 9h6v1H5V9zm0-2h6v1H5V7zm0 4h4v1H5v-1z"/><path fill-opacity=".3" d="M9 1l5 5H9z"/></g></symbol><symbol id="page" viewBox="0 0 16 16"><g fill-rule="evenodd"><path d="M2 1h12v14H2V1zm7 0h5v5H9V1z"/><path fill-opacity=".3" d="M9 1l5 5H9z"/></g></symbol><symbol id="pages-document" viewBox="0 0 16 16"><g fill-rule="evenodd"><path fill-opacity=".3" d="M7 4H5V1h9v11h-3V8z"/><path d="M7 4H2v11h9V8H7V4zm-3 8h5v1H4v-1zm0-2h5v1H4v-1z"/></g></symbol><symbol id="pages" viewBox="0 0 16 16"><g fill-rule="evenodd"><path fill-opacity=".3" d="M7 4H5V1h9v11h-3V8z"/><path d="M7 4H2v11h9V8H7V4z"/></g></symbol><symbol id="paperclip" viewBox="0 0 16 16"><path d="M12.787 8.576l.602-.601A3.792 3.792 0 1 0 8.025 2.61L2.61 8.025a3.794 3.794 0 0 0 5.364 5.364l2.708-2.707a2.517 2.517 0 0 0-3.559-3.56L4.416 9.83l1.152 1.152 2.707-2.707A.887.887 0 1 1 9.53 9.53l-2.707 2.707a2.163 2.163 0 1 1-3.06-3.06l5.415-5.414a2.163 2.163 0 1 1 3.06 3.06l-.602.6 1.152 1.153z" fill-rule="evenodd"/></symbol><symbol id="pencil" viewBox="0 0 16 16"><path d="M8.768 4.652L2 11.419v2.586h2.586l6.77-6.764-2.588-2.59zm.884-.884L11.5 1.92l2.59 2.59-1.849 1.847-2.59-2.589z" fill-rule="evenodd"/></symbol><symbol id="plus" viewBox="0 0 16 16"><path d="M7 7H2v2h5v5h2V9h5V7H9V2H7v5z" fill-rule="evenodd"/></symbol><symbol id="repeat" viewBox="0 0 16 16"><path d="M2 7V3.002C2 2.45 2.456 2 3.002 2H12.5 12l-1.2 2H4v3h2l-3 4-1-1.333v1.332-1.332L0 7h2zm12-.667V5.001v1.332L16 9h-2v3.998C14 13.55 13.544 14 12.998 14H3.5 4l1.2-2H12V9h-2l3-4 1 1.333z" fill-rule="evenodd"/></symbol><symbol id="search" viewBox="0 0 16 16"><path d="M6.5 10C4.57 10 3 8.43 3 6.5S4.57 3 6.5 3 10 4.57 10 6.5 8.43 10 6.5 10zm8.207 3.293l-3.679-3.679A5.46 5.46 0 0 0 12 6.5C12 3.468 9.532 1 6.5 1A5.507 5.507 0 0 0 1 6.5C1 9.532 3.468 12 6.5 12a5.46 5.46 0 0 0 3.114-.972l3.679 3.679 1.414-1.414z" fill-rule="evenodd"/></symbol><symbol id="services" viewBox="0 0 16 16"><g fill-rule="evenodd"><rect fill-opacity=".3" x="5" y="1" width="10" height="10" rx="1"/><rect x="1" y="5" width="10" height="10" rx="1"/></g></symbol><symbol id="share" viewBox="0 0 16 16"><path d="M8 5c-6 .775-6 9-6 9s2.052-5 6-5V5zm7 2l-7 5V2l7 5z" fill-rule="evenodd"/></symbol><symbol id="shield" viewBox="0 0 16 16"><g fill-rule="evenodd"><path d="M14 7.759V1.966c0-.512-2.65-.93-6-.964v13.5c3.35-.232 6-3.162 6-6.743z" fill-opacity=".3"/><path d="M2 7.759V1.966c0-.512 2.65-.93 6-.964v13.5C4.65 14.27 2 11.34 2 7.76z"/></g></symbol><symbol id="shuffle" viewBox="0 0 16 16"><path d="M12 5.155c-1.086.314-2.213 1.072-2.74 1.917L7.436 9.988C6.38 11.678 4.003 13 2.009 13H1v-2h1.01c1.303 0 3.04-.965 3.73-2.072l1.823-2.916C8.452 4.591 10.261 3.437 12 3.1V1l2.667 2H15v.25L16 4l-1 .75V5h-.333L12 7V5.155zm0 5.69a5.566 5.566 0 0 1-2.041-1.118l-.826 1.32c-.08.13-.166.256-.256.38.903.724 2.027 1.26 3.123 1.473V15l2.667-2H15v-.25l1-.75-1-.75V11h-.333L12 9v1.845zM6.122 4.573C4.942 3.63 3.384 3 2.01 3H1v2h1.01c.974 0 2.19.54 3.03 1.274l.827-1.322a7.61 7.61 0 0 1 .255-.379z" fill-rule="evenodd"/></symbol><symbol id="sidebar-collapse" viewBox="0 0 16 16"><path d="M1 2.007C1 1.45 1.45 1 2.007 1h11.986C14.55 1 15 1.45 15 2.007v11.986C15 14.55 14.55 15 13.993 15H2.007C1.45 15 1 14.55 1 13.993V2.007zM3 3h3v10H3V3zm5 5l4-3v6L8 8z" fill-rule="evenodd"/></symbol><symbol id="sidebar-expand" viewBox="0 0 16 16"><path d="M1 2.007C1 1.45 1.45 1 2.007 1h11.986C14.55 1 15 1.45 15 2.007v11.986C15 14.55 14.55 15 13.993 15H2.007C1.45 15 1 14.55 1 13.993V2.007zM3 3h3v10H3V3zm10 5l-4 3V5l4 3z" fill-rule="evenodd"/></symbol><symbol id="upload" viewBox="0 0 16 16"><path d="M1 1h14v2H1zm8 6.237V15H7V7.237L4.119 10.12 2.88 8.88 8 3.763l5.119 5.118-1.238 1.238z" fill-rule="evenodd"/></symbol><symbol id="user-minus" viewBox="0 0 16 16"><g fill-rule="evenodd"><path d="M7.758 14H1v-3.183C2.39 9.407 4.561 8.5 7 8.5c.37 0 .735.021 1.092.061A4.482 4.482 0 0 0 7 11.5c0 .925.28 1.785.758 2.5zm.702-5.818a3.5 3.5 0 1 1 1.003-.696 4.51 4.51 0 0 0-1.003.696z"/><path d="M11.5 16a4.5 4.5 0 1 0 0-9 4.5 4.5 0 0 0 0 9zm2.5-5v1H9v-1h5z" fill-opacity=".3"/></g></symbol><symbol id="user-plus" viewBox="0 0 16 16"><g fill-rule="evenodd"><path d="M7.758 14H1v-3.183C2.39 9.407 4.561 8.5 7 8.5c.37 0 .735.021 1.092.061A4.482 4.482 0 0 0 7 11.5c0 .925.28 1.785.758 2.5zm.702-5.818a3.5 3.5 0 1 1 1.003-.696 4.51 4.51 0 0 0-1.003.696z"/><path d="M12 12h2v-1h-2V9h-1v2H9v1h2v2h1v-2zm-.5 4a4.5 4.5 0 1 0 0-9 4.5 4.5 0 0 0 0 9z" fill-opacity=".3"/></g></symbol><symbol id="user" viewBox="0 0 16 16"><path d="M8 8.5c-2.439 0-4.61.907-6 2.317V14h12v-3.183C12.61 9.407 10.439 8.5 8 8.5zm0 0a3.5 3.5 0 1 0 0-7 3.5 3.5 0 0 0 0 7z" fill-rule="evenodd"/></symbol><symbol id="users-minus" viewBox="0 0 16 16"><g fill-rule="evenodd"><path d="M7.027 12H5V8.802C6.159 7.705 7.968 7 10 7c.295 0 .586.015.87.044A4.5 4.5 0 1 1 7.027 12zM10 7a3 3 0 1 0 0-6 3 3 0 0 0 0 6zm4 4v1H9v-1h5z" fill-opacity=".3"/><path d="M8.671 15H1v-3.198C2.159 10.705 3.968 10 6 10c.42 0 .83.03 1.226.087-.147.445-.226.92-.226 1.413 0 1.414.652 2.675 1.671 3.5zM7.393 9.658A3 3 0 1 1 8.88 7.84a4.517 4.517 0 0 0-1.487 1.817z"/></g></symbol><symbol id="users-plus" viewBox="0 0 16 16"><g fill-rule="evenodd"><path d="M12 11V9h-1v2H9v1h2v2h1v-2h2v-1h-2zm-4.973 1H5V8.802C6.159 7.705 7.968 7 10 7c.295 0 .586.015.87.044A4.5 4.5 0 1 1 7.027 12zM10 7a3 3 0 1 0 0-6 3 3 0 0 0 0 6z" fill-opacity=".3"/><path d="M8.671 15H1v-3.198C2.159 10.705 3.968 10 6 10c.42 0 .83.03 1.226.087-.147.445-.226.92-.226 1.413 0 1.414.652 2.675 1.671 3.5zM7.393 9.658A3 3 0 1 1 8.88 7.84a4.517 4.517 0 0 0-1.487 1.817z"/></g></symbol><symbol id="users" viewBox="0 0 16 16"><g fill-rule="evenodd"><path d="M10 7c-2.032 0-3.841.705-5 1.802V12h10V8.802C13.841 7.705 12.032 7 10 7zm0 0a3 3 0 1 0 0-6 3 3 0 0 0 0 6z" fill-opacity=".3"/><path d="M6 10c-2.032 0-3.841.705-5 1.802V15h10v-3.198C9.841 10.705 8.032 10 6 10zm0 0a3 3 0 1 0 0-6 3 3 0 0 0 0 6z"/></g></symbol><symbol id="yield" viewBox="0 0 16 16"><path d="M6.44 2.048c.782-1.398 2.339-1.396 3.12 0l5.133 9.17c.781 1.396.003 2.782-1.56 2.782H2.867c-1.566 0-2.34-1.388-1.56-2.783l5.133-9.17zM8 12a1 1 0 1 0 0-2 1 1 0 0 0 0 2zm-.53-3.238A.282.282 0 0 0 7.752 9h.496a.294.294 0 0 0 .282-.238l.346-2.773C8.945 5.443 8.556 5 8 5a.86.86 0 0 0-.876.989l.346 2.773z" fill-rule="evenodd"/></symbol></svg>